<?xml version="1.0" standalone="no"?>
<!DOCTYPE svg PUBLIC "-//W3C//DTD SVG 20010904//EN"
 "http://www.w3.org/TR/2001/REC-SVG-20010904/DTD/svg10.dtd">
<svg version="1.0" xmlns="http://www.w3.org/2000/svg"
 width="1123.000000pt" height="1123.000000pt" viewBox="0 0 1123.000000 1123.000000"
 preserveAspectRatio="xMidYMid meet">
<metadata>
Created by potrace 1.11, written by Peter Selinger 2001-2013
</metadata>
<g transform="translate(0.000000,1123.000000) scale(0.100000,-0.100000)"
fill="#000000" stroke="none">
<path d="M3790 7449 c-231 -25 -436 -202 -494 -426 -22 -86 -23 -1002 -1
-1105 43 -203 213 -379 421 -433 49 -13 149 -15 626 -15 375 0 585 4 620 11
205 43 382 206 442 408 11 38 16 94 16 188 l0 133 -214 0 -214 0 -4 -102 c-4
-115 -21 -163 -83 -236 -43 -49 -136 -98 -218 -113 -36 -6 -179 -9 -375 -7
-302 3 -320 4 -374 26 -69 28 -123 69 -164 128 -57 80 -59 97 -59 574 l0 435
25 50 c36 73 114 147 185 176 60 24 63 24 430 24 l370 0 57 -27 c75 -35 142
-98 174 -165 23 -46 28 -72 32 -159 l5 -104 213 0 214 0 0 128 c0 147 -14 213
-65 311 -70 133 -181 226 -327 275 l-77 26 -553 3 c-304 1 -578 -1 -608 -4z"/>
<path d="M6060 7434 c-212 -55 -382 -229 -425 -431 -8 -38 -15 -119 -15 -180
l0 -113 215 0 215 0 0 74 c0 47 8 99 21 141 17 57 31 78 82 130 45 46 78 69
122 86 58 23 70 24 390 27 414 4 456 -3 562 -101 102 -94 112 -152 113 -663 0
-319 -1 -347 -21 -409 -17 -57 -31 -78 -82 -130 -45 -45 -78 -69 -122 -86 -59
-24 -64 -24 -425 -24 l-365 0 -60 28 c-73 34 -138 95 -173 162 -22 43 -27 66
-30 158 l-4 107 -214 0 -214 0 0 -139 c0 -111 4 -152 20 -202 56 -178 190
-312 376 -375 l76 -25 580 1 c368 0 598 4 631 11 92 19 211 84 281 152 70 70
108 129 143 225 l24 65 -1 535 0 535 -24 68 c-13 38 -36 90 -52 116 -41 71
-139 163 -219 205 -135 70 -113 68 -764 67 -477 0 -596 -3 -641 -15z"/>
<path d="M4046 6843 l-255 -308 -1 -277 c0 -153 1 -278 3 -278 1 0 101 -20
222 -44 l220 -44 295 151 c162 82 300 154 305 159 6 5 10 26 10 46 l0 37 653
3 652 2 0 -153 0 -154 211 -42 c115 -23 218 -41 227 -39 10 2 147 70 305 153
l287 150 0 342 0 343 -261 130 c-187 94 -264 128 -273 121 -7 -6 -97 -116
-202 -246 l-189 -235 -706 0 -706 0 2 113 1 113 -265 129 c-146 71 -269 130
-273 132 -3 2 -121 -135 -262 -304z"/>
</g>
</svg>
